<svg xmlns="http://www.w3.org/2000/svg" xmlns:xlink="http://www.w3.org/1999/xlink" width="2000" zoomAndPan="magnify" viewBox="0 0 1500 1499.999933" height="2000" preserveAspectRatio="xMidYMid meet" version="1.0"><defs><clipPath id="34f55f830c"><path d="M 54.105469 494.519531 L 566.570312 494.519531 L 566.570312 934.179688 L 54.105469 934.179688 Z M 54.105469 494.519531 " clip-rule="nonzero"/></clipPath><clipPath id="3659b39f52"><path d="M 0.105469 0.519531 L 512 0.519531 L 512 440.179688 L 0.105469 440.179688 Z M 0.105469 0.519531 " clip-rule="nonzero"/></clipPath><clipPath id="bddca121c2"><rect x="0" width="513" y="0" height="441"/></clipPath><clipPath id="3480e8e072"><path d="M 566.570312 128.726562 L 1445.894531 128.726562 L 1445.894531 934.179688 L 566.570312 934.179688 Z M 566.570312 128.726562 " clip-rule="nonzero"/></clipPath><clipPath id="1a1ad69f2c"><path d="M 0.570312 0.726562 L 879 0.726562 L 879 806.179688 L 0.570312 806.179688 Z M 0.570312 0.726562 " clip-rule="nonzero"/></clipPath><clipPath id="4fe81446d0"><rect x="0" width="880" y="0" height="807"/></clipPath><clipPath id="852855f15e"><path d="M 566.570312 494.519531 L 1077.863281 494.519531 L 1077.863281 934.179688 L 566.570312 934.179688 Z M 566.570312 494.519531 " clip-rule="nonzero"/></clipPath><clipPath id="806c96f288"><path d="M 0.570312 0.519531 L 511.863281 0.519531 L 511.863281 440.179688 L 0.570312 440.179688 Z M 0.570312 0.519531 " clip-rule="nonzero"/></clipPath><clipPath id="9941f13373"><rect x="0" width="512" y="0" height="441"/></clipPath><clipPath id="40d0040d54"><path d="M 566.570312 934.179688 L 1079.035156 934.179688 L 1079.035156 1373.84375 L 566.570312 1373.84375 Z M 566.570312 934.179688 " clip-rule="nonzero"/></clipPath><clipPath id="d98fd2bc6d"><path d="M 0.570312 0.179688 L 513 0.179688 L 513 439.84375 L 0.570312 439.84375 Z M 0.570312 0.179688 " clip-rule="nonzero"/></clipPath><clipPath id="32a5d8b681"><rect x="0" width="514" y="0" height="440"/></clipPath><clipPath id="1d52bc807c"><path d="M 565.070312 126.15625 L 943 126.15625 L 943 504.15625 L 565.070312 504.15625 Z M 565.070312 126.15625 " clip-rule="nonzero"/></clipPath><clipPath id="3256dff1f4"><path d="M 918.007812 1212.277344 L 1068.984375 1212.277344 L 1068.984375 1363.257812 L 918.007812 1363.257812 Z M 918.007812 1212.277344 " clip-rule="nonzero"/></clipPath><clipPath id="f5fe87ccdd"><path d="M 993.496094 1212.277344 C 951.804688 1212.277344 918.007812 1246.078125 918.007812 1287.769531 C 918.007812 1329.460938 951.804688 1363.257812 993.496094 1363.257812 C 1035.1875 1363.257812 1068.984375 1329.460938 1068.984375 1287.769531 C 1068.984375 1246.078125 1035.1875 1212.277344 993.496094 1212.277344 Z M 993.496094 1212.277344 " clip-rule="nonzero"/></clipPath><clipPath id="18cb7e25c1"><path d="M 0.0078125 0.277344 L 150.984375 0.277344 L 150.984375 151.257812 L 0.0078125 151.257812 Z M 0.0078125 0.277344 " clip-rule="nonzero"/></clipPath><clipPath id="8afb05fa68"><path d="M 75.496094 0.277344 C 33.804688 0.277344 0.0078125 34.078125 0.0078125 75.769531 C 0.0078125 117.460938 33.804688 151.257812 75.496094 151.257812 C 117.1875 151.257812 150.984375 117.460938 150.984375 75.769531 C 150.984375 34.078125 117.1875 0.277344 75.496094 0.277344 Z M 75.496094 0.277344 " clip-rule="nonzero"/></clipPath><clipPath id="5fe0584514"><rect x="0" width="151" y="0" height="152"/></clipPath></defs><g clip-path="url(#34f55f830c)"><g transform="matrix(1, 0, 0, 1, 54, 494)"><g clip-path="url(#bddca121c2)"><g clip-path="url(#3659b39f52)"><path fill="#00daf2" d="M 0.105469 0.519531 L 511.898438 0.519531 L 511.898438 440.179688 L 0.105469 440.179688 Z M 0.105469 0.519531 " fill-opacity="1" fill-rule="nonzero"/></g></g></g></g><g clip-path="url(#3480e8e072)"><g transform="matrix(1, 0, 0, 1, 566, 128)"><g clip-path="url(#4fe81446d0)"><g clip-path="url(#1a1ad69f2c)"><path fill="#0a6cff" d="M 0.570312 0.726562 L 878.386719 0.726562 L 878.386719 806.179688 L 0.570312 806.179688 Z M 0.570312 0.726562 " fill-opacity="1" fill-rule="nonzero"/></g></g></g></g><g clip-path="url(#852855f15e)"><g transform="matrix(1, 0, 0, 1, 566, 494)"><g clip-path="url(#9941f13373)"><g clip-path="url(#806c96f288)"><path fill="#001842" d="M 0.570312 0.519531 L 512.363281 0.519531 L 512.363281 440.179688 L 0.570312 440.179688 Z M 0.570312 0.519531 " fill-opacity="1" fill-rule="nonzero"/></g></g></g></g><g clip-path="url(#40d0040d54)"><g transform="matrix(1, 0, 0, 1, 566, 934)"><g clip-path="url(#32a5d8b681)"><g clip-path="url(#d98fd2bc6d)"><path fill="#00daf2" d="M 0.570312 0.179688 L 512.363281 0.179688 L 512.363281 439.84375 L 0.570312 439.84375 Z M 0.570312 0.179688 " fill-opacity="1" fill-rule="nonzero"/></g></g></g></g><g clip-path="url(#1d52bc807c)"><path fill="#ffffff" d="M 758.636719 227.265625 C 758.921875 229.902344 759.324219 232.523438 759.832031 235.125 C 760.339844 237.726562 760.960938 240.304688 761.6875 242.851562 C 762.414062 245.402344 763.25 247.917969 764.1875 250.398438 C 765.128906 252.875 766.171875 255.3125 767.316406 257.703125 C 768.464844 260.09375 769.710938 262.433594 771.054688 264.71875 C 772.398438 267.003906 773.835938 269.226562 775.371094 271.390625 C 776.902344 273.554688 778.523438 275.652344 780.234375 277.675781 C 781.941406 279.703125 783.734375 281.65625 785.609375 283.53125 C 787.484375 285.40625 789.4375 287.199219 791.460938 288.90625 C 793.488281 290.617188 795.585938 292.238281 797.75 293.769531 C 799.914062 295.304688 802.136719 296.742188 804.421875 298.085938 C 806.707031 299.429688 809.046875 300.675781 811.4375 301.824219 C 813.828125 302.96875 816.261719 304.011719 818.742188 304.953125 C 821.222656 305.894531 823.738281 306.726562 826.285156 307.453125 C 828.835938 308.179688 831.414062 308.800781 834.015625 309.308594 C 836.617188 309.820312 839.234375 310.21875 841.871094 310.503906 C 867.421875 313.304688 900.402344 315.113281 942.980469 315.113281 C 900.40625 315.113281 867.421875 316.921875 841.871094 319.722656 C 839.234375 320.011719 836.617188 320.410156 834.015625 320.917969 C 831.414062 321.429688 828.835938 322.046875 826.285156 322.773438 C 823.738281 323.5 821.222656 324.335938 818.742188 325.277344 C 816.261719 326.214844 813.828125 327.257812 811.4375 328.40625 C 809.046875 329.550781 806.707031 330.796875 804.421875 332.140625 C 802.136719 333.484375 799.910156 334.925781 797.75 336.457031 C 795.585938 337.988281 793.488281 339.609375 791.460938 341.320312 C 789.4375 343.03125 787.484375 344.824219 785.609375 346.699219 C 783.734375 348.574219 781.941406 350.523438 780.234375 352.550781 C 778.523438 354.578125 776.902344 356.671875 775.367188 358.835938 C 773.835938 361 772.398438 363.222656 771.054688 365.511719 C 769.710938 367.796875 768.464844 370.132812 767.316406 372.523438 C 766.171875 374.917969 765.128906 377.351562 764.1875 379.832031 C 763.246094 382.308594 762.414062 384.824219 761.6875 387.375 C 760.960938 389.925781 760.339844 392.5 759.832031 395.101562 C 759.320312 397.703125 758.921875 400.324219 758.636719 402.960938 C 755.835938 428.511719 754.027344 461.492188 754.027344 504.070312 C 754.027344 461.492188 752.214844 428.511719 749.417969 402.960938 C 749.128906 400.324219 748.730469 397.703125 748.222656 395.101562 C 747.710938 392.5 747.09375 389.925781 746.367188 387.375 C 745.640625 384.824219 744.804688 382.308594 743.863281 379.832031 C 742.925781 377.351562 741.882812 374.917969 740.734375 372.523438 C 739.589844 370.132812 738.34375 367.796875 737 365.511719 C 735.65625 363.226562 734.214844 361 732.683594 358.835938 C 731.152344 356.671875 729.53125 354.578125 727.820312 352.550781 C 726.109375 350.523438 724.316406 348.574219 722.441406 346.699219 C 720.566406 344.824219 718.617188 343.03125 716.589844 341.320312 C 714.5625 339.609375 712.46875 337.988281 710.304688 336.457031 C 708.140625 334.925781 705.914062 333.484375 703.628906 332.140625 C 701.34375 330.796875 699.003906 329.550781 696.613281 328.40625 C 694.222656 327.257812 691.789062 326.214844 689.308594 325.277344 C 686.828125 324.335938 684.316406 323.503906 681.765625 322.773438 C 679.214844 322.046875 676.640625 321.429688 674.035156 320.917969 C 671.433594 320.410156 668.816406 320.011719 666.179688 319.722656 C 640.628906 316.921875 607.648438 315.113281 565.070312 315.113281 C 607.648438 315.113281 640.628906 313.304688 666.179688 310.503906 C 668.816406 310.21875 671.433594 309.820312 674.035156 309.308594 C 676.640625 308.800781 679.214844 308.179688 681.765625 307.453125 C 684.316406 306.726562 686.828125 305.890625 689.308594 304.953125 C 691.789062 304.011719 694.222656 302.96875 696.613281 301.820312 C 699.003906 300.675781 701.34375 299.429688 703.628906 298.085938 C 705.914062 296.742188 708.140625 295.304688 710.304688 293.769531 C 712.46875 292.238281 714.5625 290.617188 716.589844 288.90625 C 718.617188 287.199219 720.566406 285.40625 722.441406 283.53125 C 724.316406 281.65625 726.109375 279.703125 727.820312 277.675781 C 729.53125 275.652344 731.152344 273.554688 732.683594 271.390625 C 734.214844 269.226562 735.652344 267.003906 737 264.71875 C 738.34375 262.433594 739.589844 260.09375 740.734375 257.703125 C 741.878906 255.3125 742.925781 252.875 743.863281 250.398438 C 744.804688 247.917969 745.636719 245.402344 746.367188 242.851562 C 747.09375 240.304688 747.710938 237.726562 748.222656 235.125 C 748.730469 232.523438 749.128906 229.902344 749.417969 227.265625 C 752.214844 201.71875 754.027344 168.738281 754.027344 126.15625 C 754.027344 168.734375 755.835938 201.71875 758.636719 227.265625 Z M 758.636719 227.265625 " fill-opacity="1" fill-rule="nonzero"/></g><g clip-path="url(#3256dff1f4)"><g clip-path="url(#f5fe87ccdd)"><g transform="matrix(1, 0, 0, 1, 918, 1212)"><g clip-path="url(#5fe0584514)"><g clip-path="url(#18cb7e25c1)"><g clip-path="url(#8afb05fa68)"><path fill="#ffffff" d="M 0.0078125 0.277344 L 150.984375 0.277344 L 150.984375 151.257812 L 0.0078125 151.257812 Z M 0.0078125 0.277344 " fill-opacity="1" fill-rule="nonzero"/></g></g></g></g></g></g></svg>