<svg xmlns="http://www.w3.org/2000/svg" xmlns:xlink="http://www.w3.org/1999/xlink" width="500" zoomAndPan="magnify" viewBox="0 0 375 374.999991" height="500" preserveAspectRatio="xMidYMid meet" version="1.0"><defs><clipPath id="5b038bbe9d"><path d="M 86.589844 187.273438 L 170.253906 187.273438 L 170.253906 354.605469 L 86.589844 354.605469 Z M 86.589844 187.273438 " clip-rule="nonzero"/></clipPath><clipPath id="c631664714"><path d="M 170.253906 312.769531 C 170.253906 335.875 151.523438 354.605469 128.421875 354.605469 C 105.316406 354.605469 86.589844 335.875 86.589844 312.769531 L 86.589844 229.105469 C 86.589844 206 105.316406 187.273438 128.421875 187.273438 C 151.523438 187.273438 170.253906 206 170.253906 229.105469 Z M 170.253906 312.769531 " clip-rule="nonzero"/></clipPath><clipPath id="794022b22e"><path d="M 0.589844 0.273438 L 84.253906 0.273438 L 84.253906 167.605469 L 0.589844 167.605469 Z M 0.589844 0.273438 " clip-rule="nonzero"/></clipPath><clipPath id="c7db0d1272"><path d="M 84.253906 125.769531 C 84.253906 148.875 65.523438 167.605469 42.421875 167.605469 C 19.316406 167.605469 0.589844 148.875 0.589844 125.769531 L 0.589844 42.105469 C 0.589844 19 19.316406 0.273438 42.421875 0.273438 C 65.523438 0.273438 84.253906 19 84.253906 42.105469 Z M 84.253906 125.769531 " clip-rule="nonzero"/></clipPath><clipPath id="31c2afe930"><rect x="0" width="85" y="0" height="168"/></clipPath><clipPath id="5b9b3cd199"><path d="M 169.039062 20.394531 L 252.707031 20.394531 L 252.707031 354.730469 L 169.039062 354.730469 Z M 169.039062 20.394531 " clip-rule="nonzero"/></clipPath><clipPath id="939f18e383"><path d="M 252.707031 312.773438 C 252.707031 335.878906 233.976562 354.609375 210.871094 354.609375 C 187.769531 354.609375 169.039062 335.878906 169.039062 312.773438 L 169.039062 62.226562 C 169.039062 39.121094 187.769531 20.394531 210.871094 20.394531 C 233.976562 20.394531 252.707031 39.121094 252.707031 62.226562 Z M 252.707031 312.773438 " clip-rule="nonzero"/></clipPath><clipPath id="ad46a9db74"><path d="M 0.0390625 0.394531 L 83.707031 0.394531 L 83.707031 334.71875 L 0.0390625 334.71875 Z M 0.0390625 0.394531 " clip-rule="nonzero"/></clipPath><clipPath id="27983c7bcf"><path d="M 83.707031 292.773438 C 83.707031 315.878906 64.976562 334.609375 41.871094 334.609375 C 18.769531 334.609375 0.0390625 315.878906 0.0390625 292.773438 L 0.0390625 42.226562 C 0.0390625 19.121094 18.769531 0.394531 41.871094 0.394531 C 64.976562 0.394531 83.707031 19.121094 83.707031 42.226562 Z M 83.707031 292.773438 " clip-rule="nonzero"/></clipPath><clipPath id="de2a808ae9"><rect x="0" width="84" y="0" height="335"/></clipPath><clipPath id="c9c369bee6"><path d="M 254.855469 21.605469 L 337.5 21.605469 L 337.5 104.25 L 254.855469 104.25 Z M 254.855469 21.605469 " clip-rule="nonzero"/></clipPath><clipPath id="ec2e3e76ba"><path d="M 296.175781 21.605469 C 273.355469 21.605469 254.855469 40.105469 254.855469 62.925781 C 254.855469 85.75 273.355469 104.25 296.175781 104.25 C 319 104.25 337.5 85.75 337.5 62.925781 C 337.5 40.105469 319 21.605469 296.175781 21.605469 Z M 296.175781 21.605469 " clip-rule="nonzero"/></clipPath><clipPath id="48c3629b8c"><path d="M 0.855469 0.605469 L 83.5 0.605469 L 83.5 83.25 L 0.855469 83.25 Z M 0.855469 0.605469 " clip-rule="nonzero"/></clipPath><clipPath id="412d3bb34f"><path d="M 42.175781 0.605469 C 19.355469 0.605469 0.855469 19.105469 0.855469 41.925781 C 0.855469 64.75 19.355469 83.25 42.175781 83.25 C 65 83.25 83.5 64.75 83.5 41.925781 C 83.5 19.105469 65 0.605469 42.175781 0.605469 Z M 42.175781 0.605469 " clip-rule="nonzero"/></clipPath><clipPath id="c017afecc9"><rect x="0" width="84" y="0" height="84"/></clipPath></defs><g clip-path="url(#5b038bbe9d)"><g clip-path="url(#c631664714)"><g transform="matrix(1, 0, 0, 1, 86, 187)"><g clip-path="url(#31c2afe930)"><g clip-path="url(#794022b22e)"><g clip-path="url(#c7db0d1272)"><path fill="#004aad" d="M 84.253906 0.273438 L 84.253906 167.605469 L 0.589844 167.605469 L 0.589844 0.273438 Z M 84.253906 0.273438 " fill-opacity="1" fill-rule="nonzero"/></g></g></g></g></g></g><g clip-path="url(#5b9b3cd199)"><g clip-path="url(#939f18e383)"><g transform="matrix(1, 0, 0, 1, 169, 20)"><g clip-path="url(#de2a808ae9)"><g clip-path="url(#ad46a9db74)"><g clip-path="url(#27983c7bcf)"><path fill="#004aad" d="M 83.707031 0.394531 L 83.707031 334.730469 L 0.0390625 334.730469 L 0.0390625 0.394531 Z M 83.707031 0.394531 " fill-opacity="1" fill-rule="nonzero"/></g></g></g></g></g></g><g clip-path="url(#c9c369bee6)"><g clip-path="url(#ec2e3e76ba)"><g transform="matrix(1, 0, 0, 1, 254, 21)"><g clip-path="url(#c017afecc9)"><g clip-path="url(#48c3629b8c)"><g clip-path="url(#412d3bb34f)"><path fill="#545454" d="M 0.855469 0.605469 L 83.5 0.605469 L 83.5 83.25 L 0.855469 83.25 Z M 0.855469 0.605469 " fill-opacity="1" fill-rule="nonzero"/></g></g></g></g></g></g></svg>